<svg width="1943" height="639" viewBox="0 0 1943 639" fill="none" xmlns="http://www.w3.org/2000/svg">
<g filter="url(#filter0_d)">
<path d="M140.023 540.5C83.8276 605.3 31.2523 567.5 11.9891 540.5V56H1932V504C1914.56 447.167 1841.13 334 1686.89 336C1494.09 338.5 1454.74 540.5 1120.95 613.5C787.167 686.5 646.181 323 468.826 307.5C291.472 292 210.267 459.5 140.023 540.5Z" fill="#3E3C4B"/>
</g>
<path d="M140.033 484.349C83.8381 549.129 31.2631 511.341 12 484.349V0H1932V447.861C1914.56 391.045 1841.13 277.914 1686.89 279.913C1494.1 282.412 1454.74 484.349 1120.96 557.327C787.174 630.304 646.188 266.917 468.834 251.422C291.481 235.927 210.277 403.375 140.033 484.349Z" fill="#32303E"/>
<defs>
<filter id="filter0_d" x="0.989105" y="49" width="1942.01" height="589.176" filterUnits="userSpaceOnUse" color-interpolation-filters="sRGB">
<feFlood flood-opacity="0" result="BackgroundImageFix"/>
<feColorMatrix in="SourceAlpha" type="matrix" values="0 0 0 0 0 0 0 0 0 0 0 0 0 0 0 0 0 0 127 0"/>
<feOffset dy="4"/>
<feGaussianBlur stdDeviation="5.5"/>
<feColorMatrix type="matrix" values="0 0 0 0 0 0 0 0 0 0 0 0 0 0 0 0 0 0 0.25 0"/>
<feBlend mode="normal" in2="BackgroundImageFix" result="effect1_dropShadow"/>
<feBlend mode="normal" in="SourceGraphic" in2="effect1_dropShadow" result="shape"/>
</filter>
</defs>
</svg>
