<svg width="56" height="78" viewBox="0 0 56 78" fill="none" xmlns="http://www.w3.org/2000/svg">
<path d="M43.8831 2.85136H39.238L44.0696 7.96531V10.3974H34.1155V7.54917H38.9471L34.1155 2.43521V0H43.8862L43.8831 2.85136ZM32.1392 2.85136H27.4878L32.3257 7.96531V10.3974H22.3684V7.54917H27.2L22.3684 2.43521V0H32.1392V2.85136ZM20.5091 2.9685H15.4973V7.43203H20.5091V10.4005H11.9305V0H20.5091V2.9685Z" fill="#E2E4EB"/>
<path d="M5.09723 70.871L0 15.1477H56L50.8964 70.8617L27.9652 77.0577L5.09723 70.871Z" fill="#CCCFD9"/>
<path d="M28 72.3229L46.5296 67.3137L50.887 19.7037H28V72.3229Z" fill="#E2E4EB"/>
<path d="M28 39.8913H37.2775L37.9162 32.8939H28V26.063H45.581L45.4134 27.8971L43.6901 46.7315H28V39.8913Z" fill="#504E5F"/>
<path d="M28.0379 57.6407H28.0063L20.1992 55.5846L19.6996 50.1346H12.6672L13.6506 60.865L28.0126 64.7613H28.0537V57.6407H28.0379Z" fill="#3E3C4B"/>
<path d="M36.683 46.4325L35.8387 55.5785L28.019 57.6345V64.7552L42.3905 60.8712L42.4949 59.7152L43.7154 46.4294H36.683V46.4325Z" fill="#504E5F"/>
<path d="M28.0253 26.063V32.897H11.0957L10.9502 31.3619L10.6308 27.8971L10.4633 26.063H28.0253ZM28 39.8913V46.7253H20.2814L20.1455 45.1902L19.8261 41.7254L19.6585 39.8913H27.9969H28Z" fill="#3E3C4B"/>
</svg>
