<svg width="54" height="77" viewBox="0 0 54 77" fill="none" xmlns="http://www.w3.org/2000/svg">
<path d="M54 14.9792L49.0805 70.0905L26.967 76.221L4.91442 70.099L0 14.9792H54Z" fill="#CCCFD9"/>
<path d="M27 71.535L44.8688 66.5812L49.0727 19.486H27V71.535Z" fill="#E2E4EB"/>
<path d="M17.4366 33.0067H27V26.2465H10.0485L10.2102 28.0601L11.8719 46.6895H27V39.9292H18.0544L17.4366 33.0067ZM18.9602 50.0697H12.1739L13.121 60.6842L26.9688 64.5282L27 64.5198V57.4863L26.9703 57.4941L19.4415 55.4612L18.9602 50.0697Z" fill="#3E3C4B"/>
<path d="M5.02411 0H8.45957V3.39418H11.6023V0H15.038V10.2784H11.6025V6.83663H8.45978V10.2784H5.02432V0H5.02411ZM19.5555 3.40858H16.5315V0H26.0175V3.40858H22.9916V10.2784H19.5561V3.40858H19.5559H19.5555ZM27.5229 0H31.105L33.3085 3.61157L35.51 0H39.0936V10.2784H35.6721V5.18388L33.3085 8.83842H33.2493L30.8843 5.18388V10.2784H27.5229V0ZM40.8033 0H44.2398V6.88108H49.071V10.2784H40.8031V0H40.8033Z" fill="#E2E4EB"/>
<path d="M26.9768 46.6895H35.3013L34.5164 55.457L26.9766 57.492V64.5251L40.8355 60.6842L40.9371 59.5421L42.5259 41.7446L42.6908 39.9292H26.9768V46.6895ZM26.9768 32.9902V33.0067H43.3059L43.4414 31.4873L43.7496 28.0601L43.9111 26.2465H26.9768V32.9904V32.9902Z" fill="#504E5F"/>
</svg>
