<svg width="76" height="74" viewBox="0 0 76 74" fill="none" xmlns="http://www.w3.org/2000/svg">
<path d="M0 0H76V74H0V0Z" fill="#E2E4EB"/>
<path d="M19.9599 61.8581L25.7747 58.4361C26.8967 60.3702 27.9172 62.0068 30.3651 62.0068C32.7115 62.0068 34.1912 61.1143 34.1912 57.6427V34.0335H41.332V57.7408C41.332 64.9326 36.9965 68.2062 30.6712 68.2062C24.9587 68.2062 21.6429 65.3294 19.9596 61.8575L19.9599 61.8581ZM45.2106 61.114L51.0248 57.8407C52.5556 60.2712 54.5449 62.0567 58.0641 62.0567C61.0231 62.0567 62.9098 60.6182 62.9098 58.6341C62.9098 56.2535 60.9715 55.4102 57.707 54.0219L55.9222 53.2772C50.7702 51.1451 47.3528 48.4666 47.3528 42.8124C47.3528 37.6044 51.4333 33.6364 57.8094 33.6364C62.3491 33.6364 65.6135 35.1742 67.9597 39.1916L62.3995 42.6638C61.1751 40.5311 59.8495 39.688 57.8091 39.688C55.7177 39.688 54.3914 40.9776 54.3914 42.6638C54.3914 44.7468 55.7177 45.5905 58.7779 46.88L60.563 47.6238C66.6331 50.1537 70.0505 52.7326 70.0505 58.5351C70.0505 64.7851 65.0009 68.2071 58.2169 68.2071C51.5861 68.2071 47.3014 65.132 45.2103 61.1143" fill="#3E3C4B"/>
</svg>
