<svg width="301" height="86" viewBox="0 0 301 86" fill="none" xmlns="http://www.w3.org/2000/svg">
<path fill-rule="evenodd" clip-rule="evenodd" d="M280.577 35.4671C280.307 35.5212 280.035 36.1186 280.035 36.4441C279.981 38.6171 279.926 44.3744 279.926 48.2849C279.926 48.3937 280.089 48.6109 280.252 48.6109C281.066 48.6651 283.022 48.7192 284.706 48.7192C287.041 48.7192 288.399 48.3937 289.16 48.0683C291.114 47.0901 292.038 44.9718 292.038 42.6358C292.038 37.3681 288.345 35.3582 282.859 35.3582C282.478 35.304 281.393 35.304 280.577 35.4671ZM294.591 59.7454C294.591 54.3683 290.626 51.3807 283.457 51.3807C283.131 51.3807 280.849 51.3266 280.306 51.4349C280.143 51.4896 279.926 51.5985 279.926 51.7615C279.926 55.6172 279.872 61.7554 280.035 64.145C280.143 65.1767 280.904 66.6434 281.827 67.0778C282.804 67.621 285.032 67.7293 286.552 67.7293C290.843 67.7293 294.591 65.3397 294.591 59.7454ZM269.498 32.4801C270.041 32.4801 271.67 32.6425 275.852 32.6425C279.818 32.6425 282.968 32.5342 286.824 32.5342C291.549 32.5342 298.067 34.2175 298.067 41.2786C298.067 44.7546 295.622 47.525 292.418 48.8828C292.256 48.937 292.256 49.0453 292.418 49.0994C296.98 50.2407 301 53.0646 301 58.387C301 63.6017 297.741 66.9148 293.016 68.9789C290.137 70.2278 286.552 70.6622 282.913 70.6622C280.143 70.6622 272.702 70.3367 268.575 70.4456C268.14 70.2819 268.955 68.3267 269.335 68.0012C270.313 67.9465 271.073 67.8924 272.105 67.5663C273.572 67.1867 273.734 66.7517 273.951 64.5252C274.06 62.6241 274.06 55.8885 274.06 51.1094C274.06 44.5375 274.115 40.0838 274.06 37.9114C274.006 36.2281 273.409 35.6842 272.214 35.3582C271.29 35.1957 269.769 34.978 268.52 34.8155C268.248 34.5436 269.172 32.6967 269.498 32.4801ZM238.158 66.2632C239.462 67.2944 242.015 67.7287 244.296 67.7287C247.229 67.7287 250.162 67.1867 252.987 64.6329C255.865 62.0267 257.875 58.0074 257.875 51.5985C257.875 45.4603 255.539 40.4634 250.759 37.5312C248.044 35.8467 244.568 35.1416 240.548 35.1416C239.354 35.1416 238.213 35.1957 237.507 35.5212C237.344 35.6301 236.964 36.1186 236.964 36.3899C236.855 37.4764 236.855 45.8405 236.855 50.7292C236.855 55.7802 236.855 62.8413 236.964 63.6559C236.964 64.471 237.344 65.72 238.159 66.2632H238.158ZM225.829 32.4795C226.861 32.4795 230.826 32.6425 232.727 32.6425C236.149 32.6425 238.593 32.4801 245.056 32.4801C250.487 32.4801 255.05 33.9462 258.309 36.716C262.274 40.1379 264.338 44.8635 264.338 50.6203C264.338 58.822 260.59 63.5476 256.842 66.2632C253.095 69.033 248.207 70.6622 241.255 70.6622C237.561 70.6622 231.207 70.5539 225.938 70.4991H225.884C225.612 70.0106 226.318 68.1095 226.752 68.0554C228.165 67.8924 228.545 67.8376 229.251 67.5669C230.391 67.1319 230.609 66.5345 230.772 64.5252C230.935 60.7772 230.881 56.2694 230.881 51.1635C230.881 47.525 230.935 40.4092 230.826 38.128C230.663 36.2275 229.849 35.7384 228.219 35.4123C227.404 35.2499 226.318 35.0321 224.798 34.8697C224.58 34.4889 225.558 32.8056 225.829 32.4801V32.4795Z" fill="#CCCFD9"/>
<path fill-rule="evenodd" clip-rule="evenodd" d="M160.109 68.3809C158.752 68.2178 157.774 68.0012 156.579 67.458C156.416 67.3491 156.144 66.8064 156.144 66.5887C156.036 64.6876 156.036 59.2563 156.036 55.6178C156.036 52.6844 155.548 50.1318 154.298 48.3396C152.831 46.2749 150.714 45.0807 147.997 45.0807C145.608 45.0807 142.403 46.7098 139.742 48.9911C139.687 49.0453 139.253 49.4261 139.307 48.8281C139.307 48.2307 139.416 47.0359 139.47 46.2207C139.525 45.4603 139.09 45.0807 139.09 45.0807C137.352 45.9494 132.464 47.0901 130.671 47.2525C129.368 47.525 129.042 48.7739 130.4 49.2083H130.455C131.92 49.6427 132.898 50.1318 133.658 50.6209C134.201 51.0552 134.147 51.6526 134.147 52.1417C134.201 56.2146 134.201 62.4611 134.039 65.883C133.985 67.2408 133.605 67.7293 132.626 67.9465L132.735 67.8924C131.975 68.0554 131.377 68.2178 130.454 68.3267C130.128 68.6528 130.128 70.3908 130.454 70.771C131.051 70.771 134.201 70.608 136.809 70.608C140.394 70.608 142.241 70.771 143.163 70.771C143.544 70.3367 143.653 68.7069 143.435 68.3267C142.403 68.2726 141.643 68.1643 140.937 67.9465C139.959 67.7287 139.687 67.2408 139.633 66.1002C139.525 63.2209 139.525 57.1381 139.525 53.0104C139.525 51.8698 139.85 51.3266 140.176 51.0005C141.425 49.9146 143.435 49.1542 145.228 49.1542C146.966 49.1542 148.106 49.6974 148.975 50.4037C150.17 51.3807 150.55 52.7933 150.713 53.825C150.984 56.1605 150.876 60.7772 150.876 64.7965C150.876 66.9689 150.713 67.5121 149.899 67.7835C149.518 67.9465 148.541 68.1643 147.4 68.272C147.02 68.6528 147.129 70.3367 147.4 70.7169C148.975 70.7169 150.822 70.5539 153.538 70.5539C156.905 70.5539 159.078 70.7169 159.947 70.7169C160.218 70.3908 160.327 68.8158 160.109 68.3809ZM175.154 47.6339C172.276 47.6339 170.484 49.8604 170.484 53.3359C170.484 56.8667 172.059 60.9402 176.512 60.9402C177.273 60.9402 178.685 60.6141 179.336 59.8537C180.369 58.8767 181.075 56.9209 181.075 54.8568C181.075 50.3489 178.848 47.6333 175.154 47.6333V47.6339ZM174.774 71.6398C173.688 71.6398 172.927 71.9658 172.439 72.2377C170.157 73.7033 169.126 75.1158 169.126 76.8003C169.126 78.3747 169.723 79.6237 171.027 80.7102C172.602 82.068 174.774 82.7201 177.544 82.7201C183.084 82.7201 185.529 79.7325 185.529 76.8003C185.529 74.7356 184.496 73.3778 182.378 72.618C180.858 71.9658 178.088 71.6398 174.774 71.6398ZM175.154 85.7618C171.841 85.7618 169.451 85.0555 167.388 83.4805C165.378 81.9597 164.509 79.6784 164.509 78.1034C164.509 77.669 164.618 76.4736 165.596 75.3877C166.192 74.7356 167.497 73.4867 170.592 71.3684C170.701 71.3143 170.755 71.2601 170.755 71.1507C170.755 71.0424 170.646 70.9335 170.538 70.8799C167.985 69.9023 167.225 68.3267 167.007 67.458V67.3491C166.953 67.023 166.844 66.6976 167.334 66.3715C167.714 66.1002 168.257 65.7741 168.854 65.3945C169.777 64.8506 170.755 64.2532 171.352 63.7641C171.461 63.6559 171.461 63.5476 171.461 63.4387C171.461 63.3298 171.352 63.2209 171.243 63.1673C167.442 61.9178 165.541 59.0933 165.541 54.8568C165.541 52.087 166.79 49.5885 169.017 48.0135C170.538 46.8187 174.34 45.352 176.838 45.352H177.001C179.554 45.4062 180.966 45.9494 182.975 46.6557C184.062 47.0359 185.094 47.1984 186.507 47.1984C188.624 47.1984 189.548 46.5468 190.308 45.787C190.362 45.8953 190.471 46.1672 190.525 46.8729C190.58 47.5792 190.362 48.6109 189.819 49.3713C189.385 49.9687 188.407 50.4037 187.43 50.4037H187.158C186.18 50.2948 185.745 50.1859 185.745 50.1859L185.529 50.2948C185.474 50.4037 185.528 50.512 185.583 50.675L185.637 50.7839C185.746 51.2724 185.963 52.7385 185.963 53.1193C185.963 57.573 184.171 59.5276 182.27 60.9944C180.423 62.3522 178.305 63.2209 175.915 63.4387C175.861 63.4387 175.644 63.4387 175.154 63.4928C174.883 63.4928 174.503 63.5476 174.448 63.5476H174.394C173.96 63.6558 172.874 64.1991 172.874 65.122C172.874 65.9365 173.362 66.9147 175.698 67.0778C176.186 67.1319 176.675 67.1319 177.219 67.1867C180.314 67.4033 184.171 67.6752 185.963 68.2726C188.461 69.1954 190.036 71.4226 190.036 74.0841C190.036 78.104 187.158 81.8514 182.378 84.1862C180.043 85.2186 177.707 85.7618 175.154 85.7618ZM206.113 47.9052C204.973 47.9052 203.941 48.176 203.18 48.7192C201.063 50.0229 199.976 52.6302 199.976 56.4318C199.976 63.5476 203.56 68.5445 208.666 68.5445C210.187 68.5445 211.382 68.1095 212.414 67.2408C213.989 65.9365 214.804 63.3298 214.804 59.6907C214.804 52.6302 211.273 47.9046 206.114 47.9046L206.113 47.9052ZM207.091 71.1512C197.858 71.1512 194.545 64.3621 194.545 58.0074C194.545 53.5537 196.337 50.1318 199.921 47.6875C202.474 46.1124 205.516 45.2437 208.232 45.2437C215.292 45.2437 220.235 50.2948 220.235 57.573C220.235 62.5152 218.28 66.4256 214.532 68.8158C212.74 70.0106 209.644 71.1512 207.091 71.1512H207.091ZM110.304 47.9046C109.163 47.9046 108.131 48.176 107.37 48.7192C105.253 50.0229 104.166 52.6302 104.166 56.4318C104.166 63.5476 107.751 68.5445 112.856 68.5445C114.377 68.5445 115.572 68.1095 116.604 67.2408C118.179 65.9365 118.994 63.3298 118.994 59.6907C118.994 52.6302 115.518 47.9046 110.304 47.9046ZM111.281 71.1512C102.048 71.1512 98.7349 64.3621 98.7349 58.0074C98.7349 53.5537 100.527 50.1318 104.111 47.6875C106.665 46.1124 109.706 45.2437 112.422 45.2437C119.483 45.2437 124.425 50.2948 124.425 57.573C124.425 62.5152 122.47 66.4256 118.722 68.8158C116.984 70.0106 113.888 71.1512 111.281 71.1512ZM49.2006 70.608C49.0917 70.4456 48.9828 69.9565 49.0376 69.3591C49.0376 68.9241 49.1465 68.6528 49.2006 68.5445C50.3412 68.3809 50.9386 68.2178 51.5902 68.0554C52.6767 67.7835 53.111 67.1867 53.1652 65.8288C53.3288 62.5699 53.3288 56.3776 53.2741 52.087V51.9781C53.2741 51.4896 53.2741 50.8916 52.6767 50.4572C51.8074 49.9146 50.7756 49.4261 49.4178 49.0447C48.9293 48.8828 48.6032 48.6109 48.6574 48.2854C48.6574 47.9594 48.9834 47.5792 49.6897 47.4703C51.4819 47.3072 56.1522 46.1672 57.9991 45.352C58.108 45.4603 58.271 45.787 58.271 46.2213L58.2169 46.8181C58.1621 47.4161 58.108 48.1224 58.108 48.8281C58.108 49.0453 58.3257 49.2083 58.5423 49.2083C58.6512 49.2083 58.7601 49.1542 58.8684 49.0994C62.3445 46.3838 65.4945 45.4062 67.1236 45.4062C69.7857 45.4062 71.8498 46.6557 73.4248 49.2625C73.5331 49.4261 73.642 49.4802 73.805 49.4802C73.9133 49.4802 74.0758 49.4261 74.1305 49.3172C77.3353 46.8729 80.54 45.4062 82.6577 45.4062C87.7087 45.4062 90.6963 49.1542 90.6963 55.5089C90.6963 57.3011 90.6963 59.6365 90.6422 61.7554C90.6422 63.6558 90.588 65.3939 90.588 66.6434C90.588 66.9142 90.9676 67.7835 91.565 67.9465C92.3255 68.3267 93.3578 68.4897 94.7156 68.7069H94.7698C94.8787 69.0871 94.6615 70.4991 94.4443 70.771C94.1182 70.771 93.6291 70.771 93.0865 70.7169C91.7116 70.6451 90.335 70.6088 88.9583 70.608C85.5911 70.608 83.853 70.6621 82.1686 70.771C82.0609 70.3367 82.0061 69.033 82.1686 68.7069C83.1468 68.5445 83.6353 68.3809 84.2333 68.2184C85.3197 67.8924 85.5911 67.4033 85.6458 65.9913C85.6458 64.9595 85.8624 56.1605 85.5363 54.0422C85.2109 51.8698 83.5811 49.3172 79.9962 49.3172C78.6383 49.3172 76.5207 49.8604 74.4566 51.4349C74.3483 51.5437 74.2388 51.8151 74.2388 51.9781V52.0328C74.4566 53.1729 74.4566 54.4772 74.4566 56.4865V60.0167C74.4566 62.4611 74.4018 64.7423 74.4566 66.4798C74.4566 67.6752 75.1629 67.9465 75.7603 68.1643C76.0863 68.2178 76.3029 68.2726 76.5748 68.3267C77.0633 68.4356 77.5524 68.5445 78.3129 68.7069C78.4218 68.9247 78.4217 69.6304 78.2587 70.2278C78.204 70.5539 78.0951 70.7163 78.0409 70.771C76.1946 70.7169 74.2935 70.6621 71.5238 70.6621C70.7092 70.6621 69.2966 70.7169 68.1018 70.7169C67.1236 70.7169 66.2008 70.771 65.6581 70.771C65.6034 70.6621 65.4945 70.2825 65.4945 69.6845C65.4945 69.196 65.6034 68.8158 65.7122 68.7069C65.9836 68.6528 66.2008 68.5986 66.4727 68.5986C67.1236 68.4897 67.6675 68.3809 68.2101 68.2726C69.1342 68.0012 69.4597 67.5121 69.5138 66.3173C69.6768 63.6017 69.8399 55.835 69.4596 53.8792C68.8081 50.7292 67.0159 49.1542 64.1367 49.1542C62.4534 49.1542 60.3345 49.9687 58.5971 51.273C58.3251 51.4896 58.108 52.0323 58.108 52.5214V55.7261C58.108 59.6365 58.108 64.5252 58.1621 66.6434C58.2169 67.2944 58.4334 68.0554 59.683 68.3267C59.9549 68.3809 60.3893 68.4897 60.9325 68.5445L61.9095 68.7069C62.019 69.033 61.9643 70.3367 61.7471 70.771C61.2038 70.771 60.5523 70.7169 59.7913 70.7169C58.6512 70.6621 57.1845 70.608 55.5554 70.608C53.6543 70.608 52.2965 70.6621 51.21 70.7169C50.4495 70.608 49.8521 70.608 49.2006 70.608Z" fill="#E2E4EB"/>
<path fill-rule="evenodd" clip-rule="evenodd" d="M20.6311 83.6436L18.4045 82.8825C18.4045 82.8825 18.6765 71.5314 14.6024 70.7169C11.8873 67.5663 15.0379 -62.8954 24.814 70.2819C24.814 70.2819 21.4463 71.9652 20.8489 74.8445C20.1967 77.669 20.6311 83.6436 20.6311 83.6436Z" fill="white"/>
<path fill-rule="evenodd" clip-rule="evenodd" d="M20.6311 83.6436L18.4045 82.8825C18.4045 82.8825 18.6765 71.5314 14.6024 70.7169C11.8873 67.5663 15.0379 -62.8954 24.814 70.2819C24.814 70.2819 21.4463 71.9652 20.8489 74.8445C20.1967 77.669 20.6311 83.6436 20.6311 83.6436Z" fill="#CCCFD9"/>
<path fill-rule="evenodd" clip-rule="evenodd" d="M21.8265 72.6721C21.8265 72.6721 41.3257 59.8537 36.7625 33.1851C32.3636 13.796 21.9895 7.44125 20.8489 4.99693C19.5999 3.2589 18.4045 0.217773 18.4045 0.217773L19.2197 54.1505C19.2197 54.2052 17.5358 70.6621 21.8271 72.6727" fill="white"/>
<path fill-rule="evenodd" clip-rule="evenodd" d="M21.8265 72.6721C21.8265 72.6721 41.3257 59.8537 36.7625 33.1851C32.3636 13.796 21.9895 7.44125 20.8489 4.99693C19.5999 3.2589 18.4045 0.217773 18.4045 0.217773L19.2197 54.1505C19.2197 54.2052 17.5358 70.6621 21.8271 72.6727" fill="#CCCFD9"/>
<path fill-rule="evenodd" clip-rule="evenodd" d="M17.2644 73.3778C17.2644 73.3778 -1.03997 60.8854 0.0465227 38.8889C1.07828 16.8919 14.005 6.08342 16.5034 4.12821C18.1332 2.39017 18.1873 1.73804 18.2962 0C19.4368 2.44432 19.2197 36.5535 19.3821 40.5722C19.8706 56.0515 18.5134 70.4455 17.2644 73.3778Z" fill="white"/>
<path fill-rule="evenodd" clip-rule="evenodd" d="M17.2644 73.3778C17.2644 73.3778 -1.03997 60.8854 0.0465227 38.8889C1.07828 16.8919 14.005 6.08342 16.5034 4.12821C18.1332 2.39017 18.1873 1.73804 18.2962 0C19.4368 2.44432 19.2197 36.5535 19.3821 40.5722C19.8706 56.0515 18.5134 70.4455 17.2644 73.3778Z" fill="#E2E4EB"/>
</svg>
