<svg width="68" height="75" viewBox="0 0 68 75" fill="none" xmlns="http://www.w3.org/2000/svg">
<path d="M30.9319 0.799448C32.79 -0.264079 35.2101 -0.268883 37.0665 0.799448C46.4061 6.07679 55.7486 11.3459 65.0865 16.6264C66.8429 17.6157 68.0177 19.5704 67.9998 21.5941V53.3446C68.0129 55.4522 66.722 57.4536 64.869 58.4205C55.5601 63.6687 46.2561 68.9234 36.9488 74.1716C35.0523 75.256 32.5837 75.1724 30.7464 73.9992C27.9557 72.3814 25.1601 70.7716 22.369 69.1553C21.7987 68.8153 21.1558 68.5447 20.753 67.9917C21.109 67.5118 21.7456 67.4521 22.2628 67.2426C23.4277 66.8721 24.4977 66.2775 25.5679 65.7005C25.8385 65.5153 26.1689 65.5863 26.4283 65.752C28.8148 67.1203 31.1801 68.5284 33.5746 69.8836C34.0854 70.1785 34.6026 69.787 35.0393 69.5436C44.1741 64.3808 53.3202 59.2374 62.4534 54.073C62.7919 53.9102 62.9789 53.5509 62.9515 53.1802C62.9579 42.7064 62.9531 32.2308 62.9547 21.7569C62.9934 21.3363 62.75 20.9496 62.3696 20.7775C53.0931 15.5533 43.8213 10.321 34.5463 5.09546C34.3856 4.98498 34.1953 4.92571 34.0003 4.92542C33.8053 4.92514 33.6147 4.98385 33.4537 5.09386C24.1787 10.321 14.9086 15.5581 5.63359 20.782C5.25462 20.9544 5.00028 21.3347 5.04538 21.7569C5.04698 32.2308 5.04538 42.7064 5.04538 53.1818C5.0293 53.3627 5.06902 53.5442 5.15921 53.7018C5.24939 53.8594 5.3857 53.9856 5.54979 54.0634C8.02486 55.4669 10.5031 56.8606 12.9798 58.2593C14.3751 59.0103 16.0882 59.4565 17.6254 58.8811C18.982 58.3946 19.9329 57.0103 19.907 55.5699C19.9198 45.1572 19.9006 34.7429 19.9166 24.3318C19.8827 23.8696 20.3212 23.4877 20.7706 23.5312C21.9599 23.5232 23.1507 23.5152 24.3399 23.5344C24.8363 23.5232 25.1779 24.0209 25.1166 24.4866C25.1118 34.9652 25.1294 45.4441 25.1086 55.9227C25.1118 58.7154 23.9644 61.7541 21.3813 63.1206C18.199 64.7691 14.2656 64.4195 11.1218 62.8387C8.4001 61.4803 5.80279 59.8771 3.12943 58.4218C1.27166 57.4602 -0.0128475 55.4509 0.000229706 53.3449V21.5941C-0.0192527 19.5285 1.20227 17.5383 3.01334 16.5634C12.3206 11.3109 21.6263 6.05437 30.9319 0.799448Z" fill="#E2E4EB"/>
<path d="M39.0516 22.7932C43.1109 22.5319 47.4565 22.6384 51.1094 24.6381C53.9375 26.1706 55.5055 29.3868 55.5554 32.5288C55.4764 32.9526 55.0333 33.1864 54.6287 33.1573C53.451 33.1557 52.273 33.1733 51.0952 33.1493C50.5956 33.1685 50.3053 32.7079 50.2425 32.2662C49.9041 30.7628 49.0843 29.2739 47.6693 28.5488C45.4971 27.4612 42.9785 27.5159 40.6099 27.5386C38.8808 27.6304 37.0214 27.7802 35.5565 28.797C34.4319 29.5672 34.0903 31.1221 34.4916 32.3743C34.8701 33.2734 35.908 33.5635 36.7572 33.8309C41.6492 35.1104 46.8331 34.9831 51.6317 36.6668C53.6183 37.3532 55.5618 38.6877 56.2418 40.7677C57.1313 43.5556 56.7414 46.8879 54.7579 49.126C53.1494 50.9677 50.8067 51.9701 48.4702 52.5146C45.3618 53.2077 42.136 53.2253 38.9793 52.9176C36.011 52.5792 32.9221 51.7993 30.6307 49.7769C28.6712 48.0755 27.7142 45.4246 27.8092 42.866C27.8319 42.4339 28.2621 42.1326 28.676 42.1681C29.862 42.1585 31.0481 42.1553 32.2341 42.1697C32.7078 42.1358 33.059 42.5452 33.0833 42.9917C33.3022 44.424 33.8405 45.9274 35.0895 46.7766C37.5 48.3317 40.5245 48.2252 43.2846 48.2687C45.5713 48.1673 48.1382 48.1366 50.0042 46.6253C50.9887 45.7632 51.2804 44.321 51.0144 43.0803C50.7261 42.0328 49.6303 41.5446 48.6893 41.2254C43.86 39.6978 38.6182 40.2521 33.8357 38.5246C31.8941 37.8384 30.0166 36.5411 29.2706 34.5464C28.2298 31.7234 28.7067 28.2315 30.8981 26.0689C33.0347 23.9178 36.1191 23.0894 39.0516 22.7929V22.7932Z" fill="#E2E4EB"/>
</svg>
