<svg width="72" height="74" viewBox="0 0 72 74" fill="none" xmlns="http://www.w3.org/2000/svg">
<path d="M68.2698 45.4302C59.4596 47.2476 58.8538 44.2648 58.8538 44.2648C68.1557 30.462 72.0445 12.9414 68.689 8.65328C59.5339 -3.04383 43.6865 2.48819 43.4219 2.63157L43.3369 2.64698C41.5962 2.28556 39.6484 2.07049 37.4589 2.03464C33.4727 1.96947 30.4486 3.07978 28.1539 4.81991C28.1539 4.81991 -0.116409 -6.82654 1.19861 19.4673C1.47826 25.0609 9.21609 61.7922 18.4452 50.6977C21.8185 46.6406 25.0781 43.2105 25.0781 43.2105C26.6967 44.2858 28.6347 44.8345 30.6664 44.6375L30.8243 44.5036C30.7751 45.0072 30.7976 45.4998 30.8874 46.0831C28.5097 48.7395 29.2086 49.2058 24.4557 50.1843C19.6462 51.1755 22.4714 52.9399 24.3161 53.4015C26.5525 53.9605 31.726 54.7526 35.2217 49.859L35.0824 50.4174C36.0138 51.1637 36.6679 55.2708 36.5583 58.9942C36.4487 62.7174 36.3755 65.2737 37.1093 67.2703C37.8437 69.267 38.5751 73.7595 44.8234 72.4208C50.0441 71.3019 52.7497 68.4026 53.1262 63.5661C53.3931 60.1279 53.9978 60.6363 54.0357 57.5622L54.5206 56.1071C55.0796 51.4463 54.6095 49.9426 57.8258 50.642L58.6079 50.7107C60.9748 50.8182 64.0735 50.3297 65.8922 49.4846C69.8079 47.6674 72.1304 44.633 68.2692 45.4302H68.2698Z" fill="#3E3C4B"/>
<path d="M29.8087 21.9687C29.0148 21.8582 28.2958 21.9604 27.932 22.2359C27.7276 22.3908 27.6642 22.5703 27.647 22.6939C27.6014 23.0212 27.8307 23.3832 27.9717 23.5698C28.3704 24.0983 28.9529 24.4615 29.5293 24.5415C29.6129 24.5534 29.6961 24.5587 29.7788 24.5587C30.7401 24.5587 31.6143 23.8101 31.6913 23.2576C31.7876 22.5656 30.783 22.1043 29.8087 21.969V21.9687ZM56.1102 21.9906C56.0344 21.4482 55.0692 21.2935 54.1532 21.4209C53.2385 21.5483 52.3515 21.9613 52.4256 22.5049C52.4848 22.9276 53.2482 23.6492 54.1518 23.6492C54.2282 23.6492 54.3052 23.6442 54.3828 23.6332C54.986 23.5497 55.4286 23.1667 55.6389 22.946C55.9588 22.6094 56.1443 22.2344 56.1102 21.9906Z" fill="white"/>
<path d="M71.2013 45.2236C70.8654 44.2078 69.7841 43.8811 67.9877 44.2519C62.6539 45.3528 60.7437 44.5903 60.1166 44.1284C64.2625 37.8125 67.6731 30.1778 69.5131 23.0547C70.3846 19.6805 70.866 16.5468 70.9054 13.9926C70.9489 11.1893 70.4714 9.12924 69.4867 7.87081C65.5165 2.79767 59.6894 0.076394 52.6359 0.00174107C47.7867 -0.0527674 43.6897 1.18819 42.8954 1.53716C41.2229 1.12124 39.3995 0.865878 37.4144 0.833292C33.7742 0.774339 30.6275 1.64588 28.0223 3.42244C26.8907 3.00119 23.9662 1.99722 20.3897 1.42103C14.2065 0.425663 9.29305 1.17989 5.78673 3.66388C1.60291 6.62807 -0.328587 11.9267 0.0455658 19.4121C0.171469 21.9304 1.60646 29.6777 3.87093 37.0971C6.85172 46.8624 10.092 52.3906 13.5012 53.5279C13.9002 53.6609 14.3603 53.7539 14.8677 53.7539C16.1113 53.7539 17.6361 53.1934 19.2225 51.2862C21.1574 48.965 23.1589 46.7002 25.2246 44.4946C26.5648 45.2138 28.0371 45.6156 29.5429 45.6558C29.5459 45.6952 29.5498 45.7346 29.5533 45.7737C29.2941 46.0828 29.0403 46.3964 28.792 46.7143C27.7486 48.0388 27.5315 48.3146 24.173 49.006C23.2176 49.2033 20.6803 49.7262 20.643 51.5048C20.6027 53.4482 23.6424 54.2643 23.9887 54.3508C25.1956 54.653 26.3583 54.802 27.4672 54.802C30.1639 54.802 32.5371 53.9156 34.4336 52.2007C34.3752 59.1286 34.6641 65.9552 35.4959 68.0351C36.1773 69.7379 37.8416 73.8992 43.0987 73.8989C43.8701 73.8989 44.7191 73.8092 45.6532 73.6089C51.1399 72.4328 53.5225 70.0078 54.4441 64.6615C54.9374 61.8043 55.7837 54.9815 56.1819 51.3218C57.022 51.5839 58.1036 51.7039 59.2729 51.7036C61.7115 51.7036 64.5255 51.1855 66.2902 50.3664C68.2727 49.4457 71.8501 47.1865 71.2013 45.2236ZM58.1353 20.4934C58.1172 21.5738 57.9685 22.5546 57.8109 23.5784C57.6412 24.6796 57.4658 25.818 57.4217 27.2C57.3781 28.5449 57.5461 29.9432 57.7084 31.2955C58.0367 34.0269 58.3735 36.8388 57.0697 39.6134C56.8532 39.2297 56.6602 38.833 56.4921 38.4258C56.33 38.033 55.9781 37.402 55.4908 36.5286C53.5951 33.129 49.1559 25.1678 51.4284 21.9192C52.1053 20.9522 53.8232 19.9581 58.1353 20.4934ZM52.9084 2.18949C59.2284 2.32902 64.2278 4.69332 67.7673 9.21634C70.4821 12.6856 67.4927 28.4715 58.8386 42.09C58.7516 41.9793 58.6641 41.869 58.5761 41.7591L58.4665 41.6222C60.7028 37.929 60.2656 34.2748 59.8763 31.0351C59.7163 29.7056 59.5653 28.4498 59.6038 27.2702C59.6435 26.0201 59.8088 24.9477 59.9687 23.9108C60.1651 22.6331 60.3651 21.311 60.31 19.7525C60.3512 19.5889 60.3678 19.3958 60.3462 19.1665C60.2054 17.672 58.4991 13.199 55.0212 9.15057C53.1188 6.93617 50.3444 4.4581 46.5564 2.78671C48.1857 2.44899 50.4138 2.13409 52.9084 2.18949ZM17.5437 49.8903C15.7958 51.9919 14.589 51.589 14.192 51.4568C11.6058 50.5942 8.60488 45.1279 5.95914 36.4599C3.66979 28.9597 2.33196 21.4176 2.2259 19.3028C1.89174 12.6142 3.51308 7.95287 7.04517 5.44785C12.7934 1.37156 22.2441 3.81141 26.0417 5.04881C25.9872 5.10273 25.9303 5.15309 25.8764 5.20789C19.6446 11.5013 19.7924 22.2536 19.8078 22.911C19.8073 23.1646 19.8286 23.5236 19.8576 24.0175C19.9649 25.826 20.1645 29.1919 19.6313 33.0037C19.136 36.5458 20.2279 40.0127 22.6266 42.5157C22.8728 42.7721 23.1315 43.0161 23.4019 43.2468C22.3342 44.3903 20.0137 46.919 17.5437 49.8903ZM24.2029 41.0051C22.2696 38.9877 21.3916 36.1817 21.7936 33.3058C22.3564 29.2793 22.1488 25.7724 22.0371 23.8883C22.0214 23.6246 22.0074 23.3936 21.9994 23.2114C22.9098 22.4041 27.1286 20.1438 30.1372 20.8332C31.51 21.1475 32.3466 22.0824 32.6944 23.6904C34.4943 32.0157 32.9325 35.4856 31.6777 38.2741C31.419 38.8485 31.1746 39.3915 30.9661 39.9532L30.8043 40.3875C30.3949 41.4853 30.014 42.5062 29.7779 43.4755C27.7225 43.4696 25.7232 42.5915 24.2029 41.0048V41.0051ZM24.5184 52.2327C23.9182 52.0828 23.3785 51.8224 23.0618 51.6064C23.3263 51.482 23.797 51.3126 24.6135 51.1443C28.5645 50.3311 29.1747 49.757 30.5072 48.0652C30.8126 47.6771 31.1589 47.2375 31.6386 46.7019L31.6392 46.7013C32.3534 45.9014 32.6801 46.0371 33.2726 46.283C33.7528 46.4815 34.2206 47.0834 34.4102 47.7458C34.5 48.0587 34.6007 48.6523 34.271 49.1145C31.4875 53.0118 27.4313 52.9618 24.5184 52.2327ZM45.1958 71.4742C40.3623 72.5098 38.6509 70.0436 37.5231 67.2243C36.7952 65.4042 36.4374 57.1965 36.6913 48.1324C36.6945 48.0118 36.6773 47.8954 36.6442 47.7858C36.6145 47.5694 36.5693 47.3553 36.5091 47.1453C36.1317 45.8265 35.2118 44.7233 34.1083 44.2659C33.6699 44.0843 32.8653 43.751 31.8984 43.9984C32.1045 43.1488 32.4621 42.1892 32.8499 41.1503L33.0125 40.7133C33.1956 40.2207 33.4255 39.7103 33.6684 39.1699C34.9816 36.2525 36.7801 32.2565 34.8282 23.2292C34.0971 19.8479 31.6554 18.1966 27.9542 18.5802C25.7354 18.8098 23.7052 19.7051 22.6927 20.2185C22.4749 20.3287 22.2758 20.4353 22.0898 20.539C22.3724 17.1322 23.4401 10.7654 27.434 6.73709C29.9488 4.20126 33.2978 2.94875 37.3782 3.0163C45.4182 3.14783 50.574 7.27388 53.4837 10.7124C55.9911 13.6751 57.3488 16.6597 57.8906 18.2695C53.8158 17.855 51.0445 18.6593 49.6397 20.6679C46.5834 25.0368 51.3117 33.5164 53.5841 37.5918C54.001 38.3387 54.3606 38.9842 54.4738 39.2585C55.2138 41.052 56.1718 42.2494 56.8712 43.1233C57.0857 43.3911 57.2937 43.6509 57.4519 43.8778C56.2177 44.2336 54.001 45.0557 54.203 49.1648C54.0401 51.2267 52.8815 60.88 52.2928 64.2906C51.5158 68.7965 49.8577 70.4747 45.1958 71.4745V71.4742ZM65.371 48.3863C64.109 48.972 61.9971 49.4113 59.991 49.5058C57.7751 49.6095 56.647 49.2575 56.3816 49.041C56.2571 46.4803 57.2101 46.2128 58.2188 45.9296C58.3773 45.8851 58.532 45.8416 58.6813 45.7894C58.774 45.865 58.8756 45.9399 58.987 46.0134C60.768 47.1889 63.9446 47.3157 68.4294 46.3899L68.4786 46.3801C67.8737 46.9457 66.8386 47.7046 65.371 48.3863Z" fill="#E2E4EB"/>
</svg>
