<svg width="81" height="73" viewBox="0 0 81 73" fill="none" xmlns="http://www.w3.org/2000/svg">
<path d="M63.0045 24.9711C62.2507 24.7125 61.4905 24.473 60.7247 24.2527C60.8517 23.7367 60.9691 23.2183 61.077 22.6979C62.8026 14.3209 61.6743 7.57244 57.8212 5.35095C54.127 3.22035 48.0849 5.44184 41.9827 10.752C41.3814 11.2765 40.7935 11.8161 40.2195 12.3702C39.835 12.0017 39.4438 11.6404 39.046 11.2864C32.6508 5.60796 26.2405 3.21534 22.3914 5.44341C18.7006 7.57997 17.6075 13.9244 19.1611 21.8633C19.3156 22.6494 19.4902 23.4316 19.6845 24.2089C18.7774 24.4665 17.9014 24.741 17.0634 25.0331C9.56583 27.647 4.77747 31.744 4.77747 35.9933C4.77747 40.3824 9.91748 44.7846 17.7272 47.4537C18.3604 47.6691 18.999 47.8687 19.6421 48.0523C19.4332 48.8897 19.2477 49.7328 19.0858 50.5806C17.6046 58.3815 18.7615 64.5756 22.4425 66.6989C26.2446 68.8913 32.6257 66.6378 38.8395 61.2063C39.3306 60.777 39.8236 60.3216 40.3172 59.8442C40.939 60.4441 41.5774 61.0266 42.2316 61.5909C48.2504 66.7701 54.1947 68.8615 57.8726 66.7325C61.6712 64.5336 62.9054 57.8794 61.3026 49.7836C61.1804 49.1652 61.0378 48.5337 60.8779 47.8906C61.3261 47.7583 61.7659 47.6216 62.1949 47.4794C70.3136 44.7896 75.5956 40.441 75.5956 35.9933C75.5956 31.7286 70.6531 27.6041 63.0045 24.9711Z" fill="#E2E4EB"/>
<path d="M61.2433 44.6078C60.8562 44.736 60.4588 44.8598 60.0539 44.9798C59.1575 42.1425 57.9477 39.1252 56.4678 36.0083C57.8803 32.965 59.0431 29.9866 59.9144 27.1675C60.6387 27.3775 61.342 27.5984 62.0196 27.8319C68.5731 30.0876 72.5704 33.4232 72.5704 35.9932C72.5704 38.7309 68.2531 42.2851 61.2436 44.6078H61.2433ZM58.3348 50.3712C59.0434 53.951 59.1447 57.1877 58.6752 59.7179C58.2533 61.9914 57.4052 63.5071 56.3565 64.1142C54.1247 65.4061 49.3517 63.7268 44.2048 59.2976C43.6146 58.7898 43.0201 58.2476 42.4239 57.6741C44.4195 55.4915 46.4137 52.9541 48.36 50.1364C51.7838 49.8327 55.0182 49.336 57.9515 48.6581C58.0957 49.241 58.2242 49.8124 58.3348 50.3712ZM28.9207 63.891C26.7403 64.6611 25.0037 64.683 23.954 64.0778C21.72 62.7897 20.7917 57.8158 22.0582 51.1447C22.2088 50.3563 22.3812 49.5723 22.5753 48.7935C25.476 49.435 28.6869 49.8967 32.1188 50.175C34.078 52.9321 36.1299 55.4664 38.1978 57.6857C37.7584 58.1108 37.3085 58.5251 36.8486 58.9281C34.1009 61.3301 31.3475 63.0338 28.9211 63.891H28.9207ZM18.7056 44.5909C15.2524 43.4105 12.4006 41.8767 10.4458 40.203C8.68946 38.6987 7.80249 37.2052 7.80249 35.9932C7.80249 33.4148 11.6472 30.1255 18.0593 27.8899C18.8641 27.6105 19.677 27.3548 20.4968 27.123C21.3831 30.0054 22.5456 33.0192 23.9484 36.0669C22.5274 39.16 21.3483 42.2218 20.4538 45.1381C19.8667 44.97 19.2838 44.7876 18.7056 44.5909ZM22.13 21.2821C20.7989 14.4801 21.6827 9.34916 23.907 8.06165C26.2765 6.69014 31.5152 8.64585 37.037 13.5486C37.3899 13.862 37.7443 14.1902 38.0994 14.5296C36.0422 16.7389 34.009 19.254 32.0668 21.9952C28.7361 22.3039 25.5478 22.7997 22.6167 23.4638C22.4362 22.7407 22.2739 22.0131 22.13 21.2818V21.2821ZM52.6776 28.8251C51.9853 27.6293 51.2673 26.4485 50.5242 25.2835C52.7839 25.5687 54.9486 25.948 56.9815 26.4121C56.3712 28.3682 55.6106 30.4135 54.7148 32.5103C54.0604 31.2684 53.3812 30.0398 52.6776 28.8251ZM40.2203 16.6915C41.6156 18.2031 43.0132 19.8912 44.3878 21.7225C41.5993 21.5907 38.8062 21.5901 36.0177 21.7206C37.3936 19.9063 38.803 18.2207 40.2203 16.6915ZM27.6831 28.8458C26.9883 30.0508 26.3218 31.2719 25.6841 32.5081C24.8031 30.4185 24.0493 28.3641 23.4338 26.3802C25.4544 25.9279 27.6091 25.5584 29.8541 25.2779C29.1026 26.45 28.3787 27.6397 27.6831 28.8458ZM29.9187 46.9246C27.5994 46.6657 25.4121 46.315 23.3921 45.8752C24.0174 43.8562 24.7877 41.7576 25.6875 39.6232C26.328 40.8603 26.9974 42.0821 27.6953 43.2877C28.4074 44.5175 29.1487 45.7301 29.9187 46.9246ZM40.304 55.5087C38.8701 53.9614 37.44 52.2501 36.0431 50.4094C37.3989 50.4627 38.7814 50.4897 40.1865 50.4897C41.6301 50.4897 43.057 50.4574 44.4614 50.3947C43.0824 52.2689 41.6899 53.9827 40.304 55.5087ZM54.7437 39.5145C55.6902 41.672 56.4881 43.7594 57.1219 45.7442C55.0684 46.2128 52.8516 46.5901 50.5157 46.8703C51.2642 45.6837 51.9891 44.4822 52.6899 43.2667C53.4022 42.0313 54.087 40.7803 54.7437 39.5145ZM50.0691 41.7554C48.9963 43.6189 47.8632 45.4471 46.6717 47.237C44.5705 47.3872 42.3992 47.4646 40.1865 47.4646C37.9828 47.4646 35.8391 47.3959 33.7746 47.2621C32.5521 45.4764 31.3976 43.645 30.3136 41.772C29.2346 39.9089 28.2268 38.0055 27.2922 36.066C28.2244 34.1258 29.2292 32.2214 30.3045 30.3568V30.3574C31.3794 28.4924 32.5249 26.6689 33.7383 24.8908C35.8444 24.7316 38.0038 24.6482 40.1868 24.6482C42.3794 24.6482 44.5417 24.7322 46.6472 24.8927C47.8483 26.668 48.9864 28.4852 50.0594 30.3408C51.1384 32.2013 52.1566 34.0963 53.1123 36.023C52.1664 37.9693 51.1514 39.8813 50.0694 41.7554H50.0691ZM56.3101 7.9717C58.6814 9.33944 59.6038 14.8546 58.1138 22.0873C58.0162 22.5585 57.91 23.0278 57.7954 23.4952C54.8574 22.8173 51.6669 22.3127 48.3265 21.9992C46.3805 19.2283 44.3643 16.7088 42.3403 14.528C42.8706 14.0167 43.4136 13.5186 43.9688 13.0343C49.1972 8.48413 54.0836 6.68763 56.3101 7.9717Z" fill="#3E3C4B"/>
<path d="M40.1865 29.6696C43.6792 29.6696 46.5103 32.501 46.5103 35.9933C46.5103 39.486 43.6792 42.3174 40.1865 42.3174C36.6941 42.3174 33.8627 39.486 33.8627 35.9933C33.8627 32.501 36.6941 29.6696 40.1865 29.6696Z" fill="#E2E4EB"/>
</svg>
