<svg width="98" height="60" viewBox="0 0 98 60" fill="none" xmlns="http://www.w3.org/2000/svg">
<path d="M52.3168 21.4392C52.3163 20.7307 52.5025 20.0347 52.8567 19.4212C53.211 18.8077 53.7206 18.2984 54.3344 17.9446C54.9481 17.5908 55.6443 17.405 56.3527 17.4059C57.0611 17.4069 57.7568 17.5945 58.3696 17.95C62.0221 16.609 66.09 15.9075 70.3196 15.9075C81.6459 15.9075 91.3605 20.9663 94.6444 28.2464C94.6164 29.97 92.1679 30.7727 91.191 29.7149C88.4983 23.8674 79.9923 19.658 70.3196 19.658C66.804 19.658 63.4299 20.1947 60.3747 21.2198C60.4046 21.7581 60.3263 22.2969 60.1444 22.8044C59.9625 23.3119 59.6806 23.7778 59.3155 24.1744C58.9504 24.5711 58.5094 24.8905 58.0187 25.1138C57.528 25.337 56.9975 25.4596 56.4586 25.4743C55.9196 25.489 55.3833 25.3954 54.8811 25.1992C54.379 25.0029 53.9213 24.708 53.5352 24.3318C53.149 23.9555 52.8422 23.5057 52.6329 23.0089C52.4237 22.512 52.3161 21.9783 52.3168 21.4392ZM97.6047 36.4413C97.6051 35.798 97.4516 35.164 97.157 34.5921C96.8624 34.0203 96.4353 33.5272 95.9112 33.1541C95.3872 32.781 94.7816 32.5387 94.1448 32.4474C93.508 32.3561 92.8587 32.4185 92.2509 32.6294C91.6432 32.8402 91.0948 33.1934 90.6514 33.6595C90.208 34.1255 89.8825 34.6909 89.7022 35.3084C89.5219 35.9258 89.4919 36.5775 89.6148 37.2089C89.7376 37.8404 90.0098 38.4332 90.4085 38.938C89.1205 40.9183 87.1184 42.7119 84.5533 44.1523C80.5912 46.3737 75.5371 47.598 70.3181 47.598C65.7991 47.598 61.4605 46.7035 57.7675 45.0079C55.2724 43.8615 53.1972 42.4147 51.6463 40.7487C50.618 40.1498 48.2411 42.0601 49.1029 43.5161C53.7603 48.3602 61.6596 51.3501 70.3181 51.3501C76.1686 51.3501 81.8761 49.9563 86.3889 47.4238C89.6961 45.5679 92.2628 43.1645 93.8775 40.4609C94.8908 40.3834 95.8375 39.9263 96.5284 39.1811C97.2194 38.436 97.6037 37.4575 97.6047 36.4413Z" fill="#CCCFD9"/>
<path d="M19.9231 44.0077C16.2456 39.2398 14.1627 32.5119 14.1627 25.2472C14.1627 18.636 15.9065 12.3965 19.0722 7.67684C22.3902 2.7254 26.8797 0 31.7113 0C36.1152 0 40.3138 2.32094 43.5354 6.53348C46.5766 10.5127 48.5553 15.9401 49.1044 21.8187C47.7991 21.0974 46.4534 20.4518 45.0739 19.8851C43.5136 10.5407 38.013 3.75053 31.7113 3.75053C28.1693 3.75053 24.7858 5.88636 22.1849 9.766C19.4299 13.8743 17.9117 19.3733 17.9117 25.2488C17.9117 31.7076 19.8204 37.8398 23.0607 41.931C23.957 41.8417 24.8575 42.0552 25.6184 42.5373C26.3792 43.0194 26.9568 43.7425 27.2589 44.5911C27.5609 45.4397 27.5701 46.3651 27.285 47.2195C26.9999 48.074 26.4368 48.8084 25.6857 49.3055C24.9345 49.8027 24.0385 50.034 23.1406 49.9626C22.2426 49.8912 21.3944 49.5212 20.7313 48.9115C20.0682 48.3019 19.6283 47.4877 19.4818 46.5989C19.3353 45.7101 19.4907 44.7979 19.9231 44.0077ZM48.6128 24.1257C42.0296 20.3238 34.6841 18.8149 28.6048 19.8758C27.9628 19.2451 27.1283 18.8474 26.2341 18.7459C25.34 18.6443 24.4375 18.8448 23.6705 19.3155C22.9034 19.7861 22.3159 20.4999 22.0014 21.343C21.6869 22.1862 21.6635 23.1104 21.9349 23.9684C22.2064 24.8264 22.757 25.5689 23.4993 26.0778C24.2415 26.5867 25.1326 26.8326 26.0308 26.7764C26.929 26.7203 27.7826 26.3653 28.4556 25.7679C29.1287 25.1706 29.5826 24.3652 29.7451 23.4801C34.8614 22.7241 41.0729 24.1023 46.7368 27.3737C53.6545 31.3669 58.5469 37.566 59.5035 43.3139C60.6967 43.8117 61.9987 44.2379 63.4081 44.5692C63.041 37.1024 57.3117 29.1456 48.6128 24.1257ZM49.6069 55.2064C45.9761 55.6684 41.8569 55.0913 37.8061 53.5761C36.6426 54.4753 35.4105 55.3184 34.1163 56.0977C38.4191 58.0733 42.9272 59.1109 47.1086 59.1109C48.1213 59.1109 49.1169 59.0503 50.0829 58.9274C55.0903 58.2911 59.0586 56.0324 61.3407 52.5417C60.0491 52.2288 58.7766 51.8418 57.5295 51.3827C55.7732 53.4315 53.0214 54.7724 49.6069 55.2064ZM45.5919 40.4718C46.4927 40.4621 47.3642 40.1511 48.0676 39.5883C48.771 39.0255 49.2657 38.2434 49.4727 37.3667C49.6797 36.49 49.5872 35.5692 49.2099 34.7512C48.8326 33.9332 48.1923 33.2651 47.391 32.8534C46.5897 32.4418 45.6737 32.3104 44.789 32.4801C43.9043 32.6498 43.1019 33.1108 42.5098 33.7897C41.9177 34.4686 41.57 35.3262 41.5221 36.2258C41.4743 37.1254 41.7291 38.015 42.2458 38.7529C41.4789 40.5978 40.3542 42.4443 38.9199 44.2037C36.7017 46.9229 33.7849 49.3682 30.4855 51.2738C25.8794 53.9355 20.9186 55.3635 16.3561 55.3619C15.8801 55.3619 15.4072 55.3464 14.9405 55.3153C10.28 55.0026 6.73943 53.1406 4.96761 50.0745C1.82843 44.6361 4.95828 36.4568 12.2571 30.4414C12.0776 29.1029 11.9686 27.756 11.9304 26.4062L11.7235 26.1184C6.96966 29.536 3.31402 33.9477 1.42708 38.5367C-0.571851 43.3994 -0.467626 48.1627 1.71954 51.949C4.13537 56.132 8.74147 58.6582 14.6885 59.058C15.2345 59.0938 15.7867 59.1125 16.3437 59.1125C21.5627 59.1125 27.1861 57.5102 32.36 54.5219C38.5279 50.9627 43.2632 45.8791 45.5919 40.4718Z" fill="#E2E4EB"/>
</svg>
